<svg id="e2763Bi8faM1" xmlns="http://www.w3.org/2000/svg" xmlns:xlink="http://www.w3.org/1999/xlink" viewBox="0 0 278 152" shape-rendering="geometricPrecision" text-rendering="geometricPrecision">
<style><![CDATA[
#e2763Bi8faM3_ts {animation: e2763Bi8faM3_ts__ts 5000ms linear infinite normal forwards}@keyframes e2763Bi8faM3_ts__ts { 0% {transform: translate(51.5473px,97.549698px) scale(0.5,0.5);animation-timing-function: cubic-bezier(0.215,0.61,0.355,1)} 8% {transform: translate(51.5473px,97.549698px) scale(0.5,0.5);animation-timing-function: cubic-bezier(0.215,0.61,0.355,1)} 11.4% {transform: translate(51.5473px,97.549698px) scale(1.05,1.05);animation-timing-function: cubic-bezier(0.42,0,1,1)} 12% {transform: translate(51.5473px,97.549698px) scale(1,1)} 90% {transform: translate(51.5473px,97.549698px) scale(1,1)} 100% {transform: translate(51.5473px,97.549698px) scale(0.5,0.5)}} #e2763Bi8faM3 {animation: e2763Bi8faM3_c_o 5000ms linear infinite normal forwards}@keyframes e2763Bi8faM3_c_o { 0% {opacity: 0;animation-timing-function: cubic-bezier(0.42,0,0.58,1)} 8% {opacity: 0;animation-timing-function: cubic-bezier(0.42,0,0.58,1)} 11.4% {opacity: 1} 90% {opacity: 1} 100% {opacity: 0}} #e2763Bi8faM4 {animation: e2763Bi8faM4_c_o 5000ms linear infinite normal forwards}@keyframes e2763Bi8faM4_c_o { 0% {opacity: 0;animation-timing-function: cubic-bezier(0,0,0.58,1)} 12% {opacity: 0;animation-timing-function: cubic-bezier(0,0,0.58,1)} 16% {opacity: 1} 86% {opacity: 1} 96% {opacity: 0;animation-timing-function: cubic-bezier(0,0,0.58,1)} 100% {opacity: 0}} #e2763Bi8faM5_to {animation: e2763Bi8faM5_to__to 5000ms linear infinite normal forwards}@keyframes e2763Bi8faM5_to__to { 0% {transform: translate(250.188492px,115.921285px);animation-timing-function: cubic-bezier(0,0,0.58,1)} 26% {transform: translate(248.5px,116px)} 30% {transform: translate(248.5px,116px)} 88% {transform: translate(248.5px,116px)} 98% {transform: translate(250.188492px,115.921285px);animation-timing-function: cubic-bezier(0,0,0.58,1)} 100% {transform: translate(250.188492px,115.921285px)}} #e2763Bi8faM5_tr {animation: e2763Bi8faM5_tr__tr 5000ms linear infinite normal forwards}@keyframes e2763Bi8faM5_tr__tr { 0% {transform: rotate(0deg);animation-timing-function: cubic-bezier(0,0,0.58,1)} 26% {transform: rotate(0deg);animation-timing-function: cubic-bezier(0,0,0.58,1)} 30% {transform: rotate(3deg);animation-timing-function: cubic-bezier(0.42,0,1,1)} 36% {transform: rotate(2deg);animation-timing-function: cubic-bezier(0,0,0.58,1)} 46% {transform: rotate(2.5deg)} 74% {transform: rotate(3deg)} 88% {transform: rotate(3deg)} 98% {transform: rotate(0deg);animation-timing-function: cubic-bezier(0,0,0.58,1)} 100% {transform: rotate(0deg)}} #e2763Bi8faM5 {animation: e2763Bi8faM5_c_o 5000ms linear infinite normal forwards}@keyframes e2763Bi8faM5_c_o { 0% {opacity: 0;animation-timing-function: cubic-bezier(0,0,0.58,1)} 14% {opacity: 0;animation-timing-function: cubic-bezier(0,0,0.58,1)} 18% {opacity: 1} 88% {opacity: 1} 98% {opacity: 0;animation-timing-function: cubic-bezier(0,0,0.58,1)} 100% {opacity: 0}} #e2763Bi8faM6 {animation: e2763Bi8faM6_c_o 5000ms linear infinite normal forwards}@keyframes e2763Bi8faM6_c_o { 0% {opacity: 0;animation-timing-function: cubic-bezier(0,0,0.58,1)} 10% {opacity: 0;animation-timing-function: cubic-bezier(0,0,0.58,1)} 14% {opacity: 1} 84% {opacity: 1} 94% {opacity: 0;animation-timing-function: cubic-bezier(0,0,0.58,1)} 100% {opacity: 0}} #e2763Bi8faM7_to {animation: e2763Bi8faM7_to__to 5000ms linear infinite normal forwards}@keyframes e2763Bi8faM7_to__to { 0% {transform: translate(207px,66.5px)} 16% {transform: translate(207px,66.5px)} 21.6% {transform: translate(231.5px,66.5px)} 90% {transform: translate(231.5px,66.5px)} 100% {transform: translate(207px,66.5px)}} #e2763Bi8faM7_ts {animation: e2763Bi8faM7_ts__ts 5000ms linear infinite normal forwards}@keyframes e2763Bi8faM7_ts__ts { 0% {transform: scale(0,1)} 16% {transform: scale(0,1)} 21.6% {transform: scale(1,1)} 90% {transform: scale(1,1)} 100% {transform: scale(0,1)}} #e2763Bi8faM8_to {animation: e2763Bi8faM8_to__to 5000ms linear infinite normal forwards}@keyframes e2763Bi8faM8_to__to { 0% {transform: translate(174.595823px,26.59px);animation-timing-function: cubic-bezier(0.215,0.61,0.355,1)} 8% {transform: translate(174.595823px,26.59px);animation-timing-function: cubic-bezier(0.215,0.61,0.355,1)} 12% {transform: translate(230.202171px,26.588268px)} 82% {transform: translate(230.202171px,26.588268px)} 92% {transform: translate(174.595823px,26.59px);animation-timing-function: cubic-bezier(0.215,0.61,0.355,1)} 100% {transform: translate(174.595823px,26.59px)}} #e2763Bi8faM8 {animation: e2763Bi8faM8_c_o 5000ms linear infinite normal forwards}@keyframes e2763Bi8faM8_c_o { 0% {opacity: 0;animation-timing-function: cubic-bezier(0.42,0,1,1)} 8% {opacity: 0;animation-timing-function: cubic-bezier(0.42,0,1,1)} 12% {opacity: 1} 82% {opacity: 1} 92% {opacity: 0;animation-timing-function: cubic-bezier(0.42,0,1,1)} 100% {opacity: 0}} #e2763Bi8faM9_to {animation: e2763Bi8faM9_to__to 5000ms linear infinite normal forwards}@keyframes e2763Bi8faM9_to__to { 0% {transform: translate(116.087451px,65.96px);animation-timing-function: cubic-bezier(0.215,0.61,0.355,1)} 6% {transform: translate(116.087451px,65.96px);animation-timing-function: cubic-bezier(0.215,0.61,0.355,1)} 10% {transform: translate(173.471001px,65.955353px)} 80% {transform: translate(173.471001px,65.955353px)} 90% {transform: translate(116.087451px,65.96px);animation-timing-function: cubic-bezier(0.215,0.61,0.355,1)} 100% {transform: translate(116.087451px,65.96px)}} #e2763Bi8faM9 {animation: e2763Bi8faM9_c_o 5000ms linear infinite normal forwards}@keyframes e2763Bi8faM9_c_o { 0% {opacity: 0;animation-timing-function: cubic-bezier(0.42,0,1,1)} 6% {opacity: 0;animation-timing-function: cubic-bezier(0.42,0,1,1)} 10% {opacity: 1} 80% {opacity: 1} 90% {opacity: 0;animation-timing-function: cubic-bezier(0.42,0,1,1)} 100% {opacity: 0}} #e2763Bi8faM10_to {animation: e2763Bi8faM10_to__to 5000ms linear infinite normal forwards}@keyframes e2763Bi8faM10_to__to { 0% {transform: translate(54.970552px,36.762187px);animation-timing-function: cubic-bezier(0.215,0.61,0.355,1)} 4% {transform: translate(54.970552px,36.762187px);animation-timing-function: cubic-bezier(0.215,0.61,0.355,1)} 8% {transform: translate(116.087452px,36.757937px)} 78% {transform: translate(116.087452px,36.757937px)} 88% {transform: translate(54.970552px,36.762187px);animation-timing-function: cubic-bezier(0.215,0.61,0.355,1)} 100% {transform: translate(54.970552px,36.762187px)}} #e2763Bi8faM10 {animation: e2763Bi8faM10_c_o 5000ms linear infinite normal forwards}@keyframes e2763Bi8faM10_c_o { 0% {opacity: 0;animation-timing-function: cubic-bezier(0.42,0,1,1)} 4% {opacity: 0;animation-timing-function: cubic-bezier(0.42,0,1,1)} 8% {opacity: 1} 78% {opacity: 1} 88% {opacity: 0;animation-timing-function: cubic-bezier(0.42,0,1,1)} 100% {opacity: 0}} #e2763Bi8faM11_to {animation: e2763Bi8faM11_to__to 5000ms linear infinite normal forwards}@keyframes e2763Bi8faM11_to__to { 0% {transform: translate(-41.391052px,75.999996px);animation-timing-function: cubic-bezier(0,0,0.58,1)} 6% {transform: translate(41.391048px,75.561996px)} 76% {transform: translate(41.391048px,75.561996px)} 86% {transform: translate(-41.391052px,75.999996px);animation-timing-function: cubic-bezier(0,0,0.58,1)} 100% {transform: translate(-41.391052px,75.999996px)}} #e2763Bi8faM11 {animation: e2763Bi8faM11_c_o 5000ms linear infinite normal forwards}@keyframes e2763Bi8faM11_c_o { 0% {opacity: 0;animation-timing-function: cubic-bezier(0.42,0,1,1)} 6% {opacity: 1} 76% {opacity: 1} 86% {opacity: 0;animation-timing-function: cubic-bezier(0.42,0,1,1)} 100% {opacity: 0}}
]]></style>
<defs><linearGradient id="e2763Bi8faM3-fill" x1="19.8869" y1="132.868" x2="63.1006" y2="147.4" spreadMethod="pad" gradientUnits="userSpaceOnUse" gradientTransform="translate(0 0)"><stop id="e2763Bi8faM3-fill-0" offset="0%" stop-color="#3f51b1"/><stop id="e2763Bi8faM3-fill-1" offset="13%" stop-color="#5a55ae"/><stop id="e2763Bi8faM3-fill-2" offset="25%" stop-color="#7b5fac"/><stop id="e2763Bi8faM3-fill-3" offset="38%" stop-color="#8f6aae"/><stop id="e2763Bi8faM3-fill-4" offset="50%" stop-color="#a86aa4"/><stop id="e2763Bi8faM3-fill-5" offset="62%" stop-color="#cc6b8e"/><stop id="e2763Bi8faM3-fill-6" offset="75%" stop-color="#f18271"/><stop id="e2763Bi8faM3-fill-7" offset="87%" stop-color="#f3a469"/><stop id="e2763Bi8faM3-fill-8" offset="100%" stop-color="#ffcb70"/></linearGradient></defs><g transform="translate(-.015991 0)"><g id="e2763Bi8faM3_ts" transform="translate(51.5473,97.549698) scale(0.5,0.5)"><path id="e2763Bi8faM3" d="M21.4699,112.763c0-8.763,5.1841-14.9943,11.4115-18.5967l1.4672-.8763-1.3694-1.6227c-3.5213-4.1866-5.2819-7.5943-5.2819-12.9817c0-9.8337,8.4119-16.4544,18.6822-16.4544c9.5857,0,18.4866,6.6207,18.4866,16.4544c0,5.3549-1.2715,9.7363-8.5097,14.5071l-3.9125,2.6288L63.399,109.258l9.1943-7.497l7.0752,9.006c0,0-8.715196,3.744661-9.0966,7.205-.576766,5.232787,11.0528,13.63,11.0528,13.63h-15.0631l-4.5972-6.328-2.4454,2.142c-4.6391,3.449-10.2516,5.357-16.0412,5.452-14.0851.049-22.0079-9.298-22.0079-20.105Zm21.8122,8.113c3.9126,0,6.1622-1.071,9.7813-3.797l.5869-.487-11.6397-14.117-2.3475,1.622c-1.4295.799-2.624,1.956-3.4649,3.357-.8408,1.4-1.2986,2.996-1.3279,4.627-.0527,1.137.1253,2.272.5232,3.339.3979,1.066,1.0076,2.042,1.7926,2.869s1.7295,1.488,2.7769,1.944c1.0473.455,2.1762.696,3.3191.708v-.065Zm-.1956-36.5109l2.1519,2.6288l1.0759-.6816c4.7929-2.7261,6.0644-4.7707,6.0644-7.789.0156-.7458-.1206-1.4871-.4002-2.1792s-.6968-1.3209-1.2268-1.8483c-.5299-.5275-1.1615-.9429-1.8568-1.2212s-1.4401-.4138-2.1893-.3984c-.783-.0577-1.5696.0451-2.311.3021s-1.4221.6627-1.9997,1.192-1.04,1.171-1.3584,1.8854c-.3185.7143-.4863,1.4861-.4931,2.2676c0,1.9148.3912,3.2779,2.5431,5.9067v-.0649Z" transform="translate(-51.5473,-97.549698)" opacity="0" fill="url(#e2763Bi8faM3-fill)"/></g><path id="e2763Bi8faM4" d="M165.532,106.531c0-14.604,11.15-26.5797,25.138-26.5797c8.803,0,13.4,3.6024,16.139,9.0548v-7.9838h13.041v50.6287h-12.813v-8.276c-2.739,5.745-7.336,9.542-16.433,9.542-13.922,0-25.072-11.781-25.072-26.386Zm27.289,14.508c1.912.039,3.811-.312,5.58-1.031c1.77-.719,3.374-1.791,4.711-3.15c1.338-1.359,2.383-2.976,3.069-4.752s.999-3.673.921-5.575c0-7.886-5.575-14.7014-14.281-14.7014-8.411,0-14.085,6.7181-14.085,14.6044-.061,1.885.258,3.764.937,5.525s1.704,3.369,3.017,4.729c1.312,1.361,2.884,2.447,4.624,3.194s3.613,1.14,5.507,1.157Z" opacity="0" fill="#fff"/><g id="e2763Bi8faM5_to" transform="translate(250.188492,115.921285)"><g id="e2763Bi8faM5_tr" transform="rotate(0)"><path id="e2763Bi8faM5" d="M224.122,151.026l1.956-12.559c1.952.477,3.957.706,5.966.681c5.087,0,8.314-3.245,9.782-7.692l.684-2.142-20.149-48.2917h15.943l9.879,28.9167c.925,2.646,2.152,8.114,2.152,8.114s1.227-5.468,2.152-8.114l9.879-28.9167h15.65L255.519,134.864C251.216,145.087,244.858,152,232.925,152c-2.965.062-5.925-.266-8.803-.974Z" transform="scale(1.001372,1) translate(-250.188492,-116.514851)" opacity="0" fill="#fff"/></g></g><path id="e2763Bi8faM6" d="M86.1404,81.0224h13.0417v8.1136c2.7389-5.5497,7.3359-9.2495,16.3019-9.2495c13.987,0,25.138,11.9756,25.138,26.5805c0,14.604-11.151,26.385-25.138,26.385-8.705,0-13.302-3.505-16.0411-8.763v26.97h-13.2047l-.0978-70.0366ZM113.234,121.039c1.895-.017,3.768-.41,5.508-1.157s3.312-1.833,4.624-3.194c1.313-1.36,2.338-2.968,3.017-4.729s.997-3.64.937-5.525c0-7.8863-5.674-14.6043-14.086-14.6043-8.705,0-14.2802,6.8154-14.2802,14.7023-.0782,1.901.2353,3.798.9215,5.574.6857,1.776,1.7307,3.393,3.0677,4.752c1.338,1.359,2.942,2.431,4.711,3.15c1.77.719,3.669,1.07,5.58,1.031Z" transform="translate(-1.606009-.002752)" opacity="0" fill="#fff"/><g id="e2763Bi8faM7_to" transform="translate(207,66.5)"><g id="e2763Bi8faM7_ts" transform="scale(0,1)"><path d="M256,60h-49v13h49v-13Z" transform="translate(-231.5,-66.5)" fill="#fff"/></g></g><g id="e2763Bi8faM8_to" transform="translate(174.595823,26.59)"><path id="e2763Bi8faM8" d="M204.135,26.6775c0-14.6045,11.053-26.661265,26.312-26.661265c15.258,0,25.822,12.056765,25.822,26.661265.008,1.5662-.123,3.1301-.391,4.6734h-37.968c.565,2.8985,2.142,5.5047,4.451,7.3577c2.309,1.8531,5.202,2.8336,8.167,2.7681c2.489.0444,4.945-.5616,7.125-1.7575s4.006-2.9399,5.297-5.0579l10.271,7.6916c-4.108,6.3286-12.618,10.8074-22.693,10.8074-15.878,0-26.393-11.8784-26.393-26.4828Zm38.832-5.1602c-.659-2.8777-2.271-5.4509-4.578-7.3054-2.307-1.8544-5.173-2.8822-8.138-2.9178-2.928.0193-5.758,1.0489-8.008,2.9131-2.251,1.8643-3.782,4.4478-4.333,7.3101h25.057Z" transform="translate(-230.202171,-26.588268)" opacity="0" fill="#fff"/></g><g id="e2763Bi8faM9_to" transform="translate(116.087451,65.96)"><path id="e2763Bi8faM9" d="M175.623,0.194702c-8.901,0-13.498,3.699788-16.302,9.249488v-8.11359h-13.042v70.1014v60.284h13.205v-71.0751-16.2271c2.738,5.2576,7.336,8.7626,16.041,8.7626c13.987,0,25.138-11.7809,25.138-26.3854s-11.053-26.596298-25.04-26.596298ZM173.471,41.2819c-1.911.0393-3.81-.3114-5.58-1.0303-1.77-.719-3.373-1.7911-4.711-3.1501s-2.382-2.9765-3.068-4.7525c-.687-1.776-1-3.673-.922-5.5742c0-7.8864,5.575-14.7018,14.281-14.7018c8.412,0,14.085,6.718,14.085,14.6044.061,1.8853-.258,3.7636-.937,5.5246-.678,1.761-1.704,3.3691-3.016,4.7297-1.313,1.3607-2.885,2.4465-4.625,3.1936-1.74.747-3.612,1.1403-5.507,1.1566Z" transform="translate(-173.471001,-65.955353)" opacity="0" fill="#fff"/></g><g id="e2763Bi8faM10_to" transform="translate(54.970552,36.762187)"><path id="e2763Bi8faM10" d="M90.0366,71.2698L91.9928,58.71c1.9519.4775,3.9568.7065,5.9666.6815c5.0866,0,8.3136-3.2454,9.7816-7.6917l.684-2.142L88.2759,1.26575h15.9431l9.88,28.91685c.924,2.6457,1.644,5.3582,2.151,8.1136.508-2.7554,1.227-5.4679,2.152-8.1136l9.847-28.91685h15.65L121.402,55.1075c-4.304,10.2231-10.662,17.1359-22.5949,17.1359-2.9537.0588-5.9024-.2685-8.7705-.9736Z" transform="translate(-116.087452,-36.757937)" opacity="0" fill="#fff"/></g><g id="e2763Bi8faM11_to" transform="translate(-41.391052,75.999996)"><path id="e2763Bi8faM11" d="M69.0884,0v27.4564h-26.7029-1.6628-27.0289v-27.4564L0,0v27.4564v12.2677v111.3999h13.6938v-63.0429-27.1967-21.1603h27.0289h1.6628h26.7029v28.4301h13.6937v-68.1542h-13.6937Z" transform="translate(-41.391048,-75.561996)" opacity="0" fill="#fff"/></g></g></svg>
