<?xml version="1.0" standalone="no"?>
<!DOCTYPE svg PUBLIC "-//W3C//DTD SVG 20010904//EN"
 "http://www.w3.org/TR/2001/REC-SVG-20010904/DTD/svg10.dtd">
<svg version="1.0" xmlns="http://www.w3.org/2000/svg"
 width="700.000000pt" height="700.000000pt" viewBox="0 0 700.000000 700.000000"
 preserveAspectRatio="xMidYMid meet">
<metadata>
Created by potrace 1.14, written by Peter Selinger 2001-2017
</metadata>
<g transform="translate(0.000000,700.000000) scale(0.100000,-0.100000)"
fill="#000000" stroke="none">
<path d="M1008 6635 c-158 -64 -281 -201 -345 -380 l-28 -80 -3 -2643 c-3
-2947 -8 -2715 69 -2871 49 -99 151 -209 241 -259 166 -94 359 -112 532 -48
59 21 453 244 896 506 118 70 256 151 307 180 76 44 90 56 81 69 -16 25 -58
41 -110 41 l-48 0 298 383 c433 555 734 941 744 952 11 12 -31 -79 -336 -718
-131 -274 -237 -500 -235 -501 2 -2 695 393 1539 878 1698 976 1613 923 1684
1067 50 103 69 186 70 304 1 166 -46 299 -138 389 -41 40 -328 209 -1436 843
-762 436 -1390 792 -1397 791 -7 -2 -237 -304 -513 -673 l-500 -670 835 -5
835 -5 -252 -310 c-1417 -1744 -2174 -2671 -2189 -2680 -6 -4 -12 -5 -14 -3
-3 3 243 807 578 1883 l125 400 -664 3 -663 2 46 113 c26 61 286 689 578 1394
l532 1283 -216 124 c-119 69 -223 128 -232 131 -14 5 -51 -80 -214 -492 -109
-274 -239 -601 -289 -727 l-91 -229 -3 783 c-1 431 -5 787 -10 791 -4 4 -33
-3 -64 -16z"/>
</g>
</svg>
