<svg id="etEVSL21Alq1" xmlns="http://www.w3.org/2000/svg" xmlns:xlink="http://www.w3.org/1999/xlink" viewBox="0 0 1280 800" shape-rendering="geometricPrecision" text-rendering="geometricPrecision">
<style><![CDATA[
#etEVSL21Alq5_tr {animation: etEVSL21Alq5_tr__tr 8000ms linear infinite normal forwards}@keyframes etEVSL21Alq5_tr__tr { 0% {transform: translate(818.625476px,314.554816px) rotate(0deg)} 5% {transform: translate(818.625476px,314.554816px) rotate(0deg)} 37.5% {transform: translate(818.625476px,314.554816px) rotate(14deg)} 50% {transform: translate(818.625476px,314.554816px) rotate(24deg)} 72.5% {transform: translate(818.625476px,314.554816px) rotate(30deg)} 92.5% {transform: translate(818.625476px,314.554816px) rotate(30deg)} 100% {transform: translate(818.625476px,314.554816px) rotate(60deg)}} #etEVSL21Alq5_ts {animation: etEVSL21Alq5_ts__ts 8000ms linear infinite normal forwards}@keyframes etEVSL21Alq5_ts__ts { 0% {transform: scale(0.5,0.5);animation-timing-function: cubic-bezier(0.42,0,1,1)} 2.5% {transform: scale(1,1);animation-timing-function: cubic-bezier(0.42,0,1,1)} 37.5% {transform: scale(1.03,1.03);animation-timing-function: cubic-bezier(0,0,0.58,1)} 50% {transform: scale(1.03,1.03)} 77.5% {transform: scale(1,1)} 92.5% {transform: scale(1,1)} 100% {transform: scale(0.5,0.5)}} #etEVSL21Alq6 {animation: etEVSL21Alq6_c_o 8000ms linear infinite normal forwards}@keyframes etEVSL21Alq6_c_o { 0% {opacity: 0} 11.25% {opacity: 0;animation-timing-function: cubic-bezier(0,0,0.58,1)} 13.75% {opacity: 1} 96.25% {opacity: 1} 100% {opacity: 0}} #etEVSL21Alq7 {animation: etEVSL21Alq7_c_o 8000ms linear infinite normal forwards}@keyframes etEVSL21Alq7_c_o { 0% {opacity: 0} 10% {opacity: 0;animation-timing-function: cubic-bezier(0,0,0.58,1)} 12.5% {opacity: 1} 95% {opacity: 1} 98.75% {opacity: 0} 100% {opacity: 0}} #etEVSL21Alq8 {animation: etEVSL21Alq8_c_o 8000ms linear infinite normal forwards}@keyframes etEVSL21Alq8_c_o { 0% {opacity: 0} 8.75% {opacity: 0;animation-timing-function: cubic-bezier(0,0,0.58,1)} 11.25% {opacity: 1} 93.75% {opacity: 1} 97.5% {opacity: 0} 100% {opacity: 0}} #etEVSL21Alq9 {animation: etEVSL21Alq9_c_o 8000ms linear infinite normal forwards}@keyframes etEVSL21Alq9_c_o { 0% {opacity: 0} 7.5% {opacity: 0;animation-timing-function: cubic-bezier(0,0,0.58,1)} 10% {opacity: 1} 92.5% {opacity: 1} 96.25% {opacity: 0} 100% {opacity: 0}} #etEVSL21Alq10 {animation: etEVSL21Alq10_c_o 8000ms linear infinite normal forwards}@keyframes etEVSL21Alq10_c_o { 0% {opacity: 0} 6.25% {opacity: 0;animation-timing-function: cubic-bezier(0,0,0.58,1)} 8.75% {opacity: 1} 91.25% {opacity: 1} 95% {opacity: 0} 100% {opacity: 0}} #etEVSL21Alq11 {animation: etEVSL21Alq11_c_o 8000ms linear infinite normal forwards}@keyframes etEVSL21Alq11_c_o { 0% {opacity: 0} 5% {opacity: 0;animation-timing-function: cubic-bezier(0,0,0.58,1)} 7.5% {opacity: 1} 90% {opacity: 1} 93.75% {opacity: 0} 100% {opacity: 0}} #etEVSL21Alq12 {animation: etEVSL21Alq12_c_o 8000ms linear infinite normal forwards}@keyframes etEVSL21Alq12_c_o { 0% {opacity: 0} 3.75% {opacity: 0;animation-timing-function: cubic-bezier(0,0,0.58,1)} 6.25% {opacity: 1} 88.75% {opacity: 1} 92.5% {opacity: 0} 100% {opacity: 0}} #etEVSL21Alq13 {animation: etEVSL21Alq13_c_o 8000ms linear infinite normal forwards}@keyframes etEVSL21Alq13_c_o { 0% {opacity: 0} 2.5% {opacity: 0;animation-timing-function: cubic-bezier(0,0,0.58,1)} 5% {opacity: 1} 87.5% {opacity: 1} 91.25% {opacity: 0} 100% {opacity: 0}} #etEVSL21Alq14 {animation: etEVSL21Alq14_c_o 8000ms linear infinite normal forwards}@keyframes etEVSL21Alq14_c_o { 0% {opacity: 0} 1.25% {opacity: 0;animation-timing-function: cubic-bezier(0,0,0.58,1)} 3.75% {opacity: 1} 86.25% {opacity: 1} 90% {opacity: 0} 100% {opacity: 0}} #etEVSL21Alq15 {animation: etEVSL21Alq15_c_o 8000ms linear infinite normal forwards}@keyframes etEVSL21Alq15_c_o { 0% {opacity: 0;animation-timing-function: cubic-bezier(0,0,0.58,1)} 2.5% {opacity: 1} 85% {opacity: 1} 88.75% {opacity: 0} 100% {opacity: 0}}
]]></style>
<g transform="translate(0-2.128427)" clip-path="url(#etEVSL21Alq18)"><g><g clip-path="url(#etEVSL21Alq16)"><g id="etEVSL21Alq5_tr" transform="translate(818.625476,314.554816) rotate(0)"><g id="etEVSL21Alq5_ts" transform="scale(0.5,0.5)"><g transform="translate(-802.390895,-302.967323)" opacity="0.07"><path id="etEVSL21Alq6" d="M907.342,-143.867L174.355,-29.5023L-93.134,662.221L372.365,1239.58l732.985-114.37l267.49-691.719-465.498-577.358Z" opacity="0" fill="none" stroke="#fff" stroke-width="0.5" stroke-miterlimit="10"/><path id="etEVSL21Alq7" d="M228.9,-4.08708c2.847-3.89995,332.816-57.58282,338.03-58.39622s335.853-50.2027,338.219-47.1167c2.367,3.087,420.511,520.604,421.331,525.818.81,5.213-236.74,625.032-239.59,628.932s-332.863,57.28-336.543,57.85c-3.68.58-335.805,50.51-338.172,47.43-2.366-3.09-423.582-520.127-424.3955-525.341C-13.0339,619.876,226.052,-0.187135,228.9,-4.08708Z" opacity="0" fill="none" stroke="#fff" stroke-width="0.5" stroke-miterlimit="10"/><path id="etEVSL21Alq8" d="M283.186,21.6907c6.002-7.8477,299.447-58.0309,309.874-59.6579s305.519-43.2707,313.319-37.5763s375.481,463.5405,377.301,475.1945-209.1,558.521-214.61,567.548c-5.5,9.027-299.442,58.031-309.87,59.661-10.427,1.62-305.212,43.22-313.319,37.57-8.106-5.64-375.4841-463.537-377.3024-475.192C66.7602,577.584,276.265,29.682,283.186,21.6907Z" opacity="0" fill="none" stroke="#fff" stroke-width="0.5" stroke-miterlimit="10"/><path id="etEVSL21Alq9" d="M337.779,47.412c8.493-12.0065,265.932-59.3991,281.266-61.7917c15.335-2.3926,274.831-36.5976,286.578-27.7492c11.748,8.8483,330.907,407.3509,333.347,422.9919c2.44,15.642-180.25,491.816-188.79,503.516s-265.766,58.431-281.408,60.872c-15.641,2.44-274.878,36.29-286.578,27.749-11.699-8.542-330.501-406.786-332.893-422.12-2.393-15.335,179.936-491.7681,188.478-503.468Z" opacity="0" fill="none" stroke="#fff" stroke-width="0.5" stroke-miterlimit="10"/><path id="etEVSL21Alq10" d="M392.323,72.8285C403.712,57.2287,624.77,14.2558,645.318,11.0498s244.496-29.6656,260.096-18.27675s285.466,349.72295,288.726,370.57795c3.25,20.855-150.77,425.014-162.16,440.614-11.39,15.599-232.397,58.879-253.252,62.133s-244.238,29.311-259.838,17.922-285.776-349.676-288.983-370.224C226.701,493.248,379.708,88.6197,392.323,72.8285Z" opacity="0" fill="none" stroke="#fff" stroke-width="0.5" stroke-miterlimit="10"/><path id="etEVSL21Alq11" d="M446.61,98.6061C461.105,78.7518,645.638,39.2785,671.4,35.259s213.856-22.6857,233.403-8.143c19.548,14.5431,240.747,292.615,244.817,318.683c4.06,26.069-121.6,358.261-136.76,377.904-15.155,19.643-198.721,59.28-224.789,63.347-26.069,4.067-213.549,22.638-233.404,8.143-19.854-14.495-240.439-292.662-244.458-318.424-4.02-25.762,122.165-358.663,136.401-378.1629Z" opacity="0" fill="none" stroke="#fff" stroke-width="0.5" stroke-miterlimit="10"/><path id="etEVSL21Alq12" d="M501.155,124.022c17.083-23.4,165.399-59.4215,196.374-64.2545c30.976-4.833,183.522-15.7538,206.922,1.3295C927.85,78.1803,1100.21,296.956,1105.05,327.932c4.83,30.976-92.69,291.861-109.729,315.568-17.036,23.706-165.399,59.421-196.682,64.302-31.282,4.88-183.215,15.706-206.615-1.378-23.399-17.083-195.762-235.859-200.643-267.142C386.5,408,483.199,147.872,501.155,124.022Z" opacity="0" fill="none" stroke="#fff" stroke-width="0.5" stroke-miterlimit="10"/><path id="etEVSL21Alq13" d="M555.44,149.791c20.237-27.347,132.029-59.8688,168.218-65.5153s152.881-8.774,180.181,11.1565C931.139,115.363,1054.57,274.23,1060.22,310.419c5.64,36.19-63.218,225.06-83.407,252.714-20.19,27.654-131.723,59.822-167.298,65.372-35.576,5.551-152.575,8.726-180.181-11.156-27.607-19.883-150.425-178.846-156.12-215.342-5.694-36.496,62.296-224.916,82.226-252.216Z" opacity="0" fill="none" stroke="#fff" stroke-width="0.5" stroke-miterlimit="10"/><path id="etEVSL21Alq14" d="M610.034,175.523c22.73-31.507,98.304-60.577,139.707-67.037s122.24-1.794,153.794,21.243C935.09,152.765,1009.24,251.465,1015.7,292.868s-34.358,158.354-57.088,189.86c-22.729,31.506-99.578,60.461-140.061,66.777-40.483,6.317-122.241,1.794-153.44-20.983-31.2-22.778-105.749-122.043-112.209-163.446s33.741-158.258,57.132-189.553Z" opacity="0" fill="none" stroke="#fff" stroke-width="0.5" stroke-miterlimit="10"/><path id="etEVSL21Alq15" d="M971.317,276.224c6.186,39.087-1.37,79.111-21.387,113.248-20.016,34.139-51.248,60.281-88.379,73.969-37.133,13.688-77.859,14.077-115.245,1.101-37.387-12.978-69.115-38.52-89.777-72.269-20.666-33.748-28.985-73.62-23.543-112.818c5.438-39.198,24.304-75.297,53.378-102.142c29.074-26.847,66.561-42.78,106.067-45.087c39.504-2.302,78.59,9.164,110.588,32.448c18.204,13.141,33.619,29.77,45.344,48.92c11.724,19.15,19.526,40.439,22.954,62.63Z" opacity="0" fill="none" stroke="#fff" stroke-width="0.5" stroke-miterlimit="10"/></g></g></g><clipPath id="etEVSL21Alq16"><rect width="1552" height="1552" rx="0" ry="0" transform="matrix(.988046-.154161 0.154161 0.988046-246.498-99.241)" fill="#fff"/></clipPath></g></g><clipPath id="etEVSL21Alq18"><rect width="1280" height="800" rx="0" ry="0" fill="#fff"/></clipPath></g></svg>
